<svg width="281" height="254" viewBox="0 0 352 318" fill="none" opacity="1"
  xmlns="http://www.w3.org/2000/svg">
  <g clip-path="url(#clip0_476_1089)">
    <path
      d="M141.976 305.961C100.593 285.022 70.7655 227.146 70.7655 158.799C70.7655 90.4533 100.593 32.4776 141.976 11.6379C131.309 6.20579 119.951 3.14404 108 3.14404C49.9259 3.14404 2.81445 72.7741 2.81445 158.799C2.81445 244.825 49.9259 314.455 108 314.455C119.951 314.455 131.309 311.393 141.976 305.961Z"
      fill="#FFD600"></path>
    <path
      d="M175.461 40.0897C185.239 27.7439 196.499 18.0649 208.943 11.6451C198.573 6.50924 187.412 3.64502 175.857 3.64502C164.301 3.64502 152.943 6.608 142.474 11.8426C142.375 11.8426 142.177 11.6451 142.079 11.6451C100.696 32.5835 70.8682 90.4604 70.8682 158.807C70.8682 227.153 100.696 285.03 142.079 305.968C154.819 299.548 166.375 289.672 176.449 277.03C153.437 248.486 138.819 205.72 138.819 157.819C138.819 109.917 153.042 68.5343 175.461 39.9909V40.0897Z"
      fill="#5DBBFF" stroke="black" stroke-width="4.93831" stroke-miterlimit="10"></path>
    <path
      d="M175.452 40.0857C152.835 68.6291 138.514 111 138.514 158.309C138.514 205.618 153.131 248.976 176.143 277.519C166.168 290.162 154.514 300.038 141.773 306.458C100.39 285.519 70.5625 227.643 70.5625 159.296C70.5625 90.9503 100.39 32.9745 141.773 12.0361"
      stroke="black" stroke-width="4.93831" stroke-linecap="round" stroke-linejoin="round"></path>
    <path
      d="M141.78 306.445C100.397 285.507 70.5692 227.63 70.5692 159.284C70.5692 90.9378 100.397 32.9621 141.78 12.0237C131.113 6.59153 119.755 3.52979 107.804 3.52979C49.7296 3.62855 2.61816 73.2587 2.61816 159.284C2.61816 245.309 49.7296 314.939 107.804 314.939C119.755 314.939 131.113 311.878 141.78 306.445Z"
      stroke="black" stroke-width="4.93831" stroke-linecap="round" stroke-linejoin="round"></path>
    <path
      d="M209.718 12.0237C251.101 32.9621 280.928 90.839 280.928 159.185C280.928 227.531 251.101 285.408 209.718 306.347C220.385 311.779 231.743 314.841 243.693 314.841C301.768 314.841 348.879 245.21 348.879 159.185C348.879 73.2586 301.768 3.52979 243.693 3.52979C231.743 3.52979 220.385 6.59153 209.718 12.0237Z"
      fill="#5DBBFF" stroke="black" stroke-width="4.93831" stroke-miterlimit="10"></path>
    <path
      d="M209.726 12.0361C196.985 18.4559 185.43 28.3325 175.355 40.9746C198.368 69.518 212.985 112.284 212.985 160.185C212.985 208.087 198.763 249.47 176.343 278.013C166.565 290.26 155.306 299.939 142.861 306.359C153.232 311.495 164.392 314.359 175.948 314.359C187.504 314.359 198.862 311.396 209.331 306.162C209.43 306.162 209.627 306.359 209.726 306.359C251.109 285.421 280.936 227.544 280.936 159.198C280.936 90.8515 251.109 32.9745 209.726 12.0361Z"
      fill="#FFD600" stroke="black" stroke-width="4.93831" stroke-linecap="round"
      stroke-linejoin="round"></path>
    <path
      d="M176.344 278.004C198.961 249.46 213.282 207.089 213.282 159.781C213.282 112.472 198.665 69.1132 175.652 40.5698C185.628 27.9278 197.282 18.0511 210.023 11.6313C251.406 32.5698 281.233 90.4467 281.233 158.793C281.233 227.139 251.406 285.016 210.023 305.954"
      stroke="black" stroke-width="4.93831" stroke-linecap="round" stroke-linejoin="round"></path>
    <path
      d="M209.914 11.6379C251.297 32.5763 281.124 90.4533 281.124 158.799C281.124 227.146 251.297 285.022 209.914 305.961C220.581 311.393 231.939 314.455 243.89 314.455C301.964 314.455 349.076 244.825 349.076 158.799C349.076 72.8729 301.964 3.14404 243.89 3.14404C231.939 3.14404 220.581 6.20579 209.914 11.6379Z"
      stroke="black" stroke-width="4.93831" stroke-linecap="round" stroke-linejoin="round"></path>
  </g>
  <defs>
    <clipPath id="clip0_476_1089">
      <rect width="351.41" height="316.644" fill="white" transform="translate(0.148438 0.673828)"></rect>
    </clipPath>
  </defs>
</svg>